<?xml version="1.0" standalone="no"?>
<!DOCTYPE svg PUBLIC "-//W3C//DTD SVG 20010904//EN"
 "http://www.w3.org/TR/2001/REC-SVG-20010904/DTD/svg10.dtd">
<svg version="1.0" xmlns="http://www.w3.org/2000/svg"
 width="512.000000pt" height="512.000000pt" viewBox="0 0 512.000000 512.000000"
 preserveAspectRatio="xMidYMid meet">
<metadata>
Created by potrace 1.11, written by Peter Selinger 2001-2013
</metadata>
<g transform="translate(0.000000,512.000000) scale(0.100000,-0.100000)"
fill="#000000" stroke="none">
<path d="M3480 4810 c-238 -29 -541 -197 -852 -472 -36 -32 -70 -58 -75 -58
-5 0 -20 12 -34 26 -38 41 -216 185 -304 246 -314 216 -609 302 -818 238 -349
-108 -474 -564 -341 -1243 14 -71 24 -130 22 -132 -2 -1 -48 -17 -103 -35
-514 -168 -855 -429 -927 -711 -19 -75 -20 -92 -10 -164 43 -301 378 -575 930
-760 86 -29 112 -41 112 -55 0 -10 -9 -61 -20 -114 -39 -189 -53 -349 -47
-536 8 -232 34 -345 112 -485 94 -170 279 -266 475 -249 258 23 553 178 872
458 47 42 89 76 93 76 4 0 41 -31 83 -68 103 -91 161 -137 257 -204 515 -357
944 -342 1121 38 108 231 120 577 34 988 -11 55 -17 103 -13 107 5 3 46 19 93
34 94 30 317 122 395 163 191 99 384 259 464 381 81 127 107 282 68 411 -81
266 -419 520 -914 684 -70 23 -113 43 -113 51 0 8 7 47 16 87 53 249 69 575
38 759 -53 309 -212 503 -444 539 -71 11 -76 11 -170 0z m196 -270 c73 -31
126 -119 160 -266 23 -95 26 -410 5 -539 -13 -84 -43 -248 -46 -252 -1 -2 -42
6 -92 17 -121 26 -369 66 -466 75 l-78 7 -108 142 c-60 77 -154 193 -210 256
-55 63 -101 117 -101 120 0 3 37 37 83 76 362 312 670 444 853 364z m-1996 5
c73 -17 239 -96 345 -164 112 -71 193 -134 313 -243 l43 -39 -42 -47 c-106
-122 -244 -290 -304 -371 l-66 -90 -57 -6 c-119 -14 -331 -47 -447 -71 -66
-13 -125 -24 -131 -24 -27 0 -75 344 -75 540 0 280 60 447 186 513 39 21 150
21 235 2z m983 -744 c46 -53 100 -117 121 -143 l37 -47 -260 1 -260 1 19 26
c23 32 130 160 190 228 33 37 48 48 58 41 6 -6 49 -54 95 -107z m171 -446 c99
-3 181 -7 182 -8 1 -1 43 -66 93 -144 113 -177 194 -318 287 -498 l73 -140
-98 -190 c-93 -180 -255 -456 -325 -555 l-32 -45 -95 -7 c-52 -4 -253 -6 -448
-4 l-354 3 -22 25 c-60 70 -249 387 -367 616 l-78 153 67 132 c85 169 192 355
299 523 l85 132 57 4 c31 2 124 5 207 7 82 1 151 4 152 5 2 2 34 2 71 0 37 -1
148 -5 246 -9z m-1123 -157 c-37 -62 -94 -161 -126 -220 -32 -60 -61 -108 -64
-108 -7 0 -20 33 -87 228 -26 73 -44 135 -41 138 9 10 319 71 369 73 13 1 0
-27 -51 -111z m1751 92 c36 -6 110 -19 163 -30 54 -11 99 -20 100 -20 5 0 -51
-170 -93 -282 l-36 -96 -81 146 c-45 81 -101 179 -125 217 -23 39 -45 74 -47
79 -3 4 7 5 23 2 16 -3 59 -10 96 -16z m-2264 -275 c29 -86 81 -223 116 -306
l62 -151 -57 -137 c-31 -76 -82 -211 -113 -300 -30 -90 -57 -165 -59 -168 -9
-8 -250 83 -372 141 -197 95 -310 173 -400 278 -129 150 -120 266 34 419 142
142 316 236 691 372 41 15 45 8 98 -148z m2863 126 c299 -101 534 -234 667
-376 149 -160 145 -281 -14 -437 -129 -126 -348 -249 -602 -338 l-135 -47 -54
160 c-30 88 -83 227 -117 310 l-63 151 29 66 c42 93 119 296 163 428 20 61 38
112 39 112 1 0 40 -13 87 -29z m-2323 -1261 c23 -35 40 -66 38 -68 -5 -4 -224
34 -315 54 l-70 16 60 171 c33 95 63 180 66 190 4 12 32 -31 93 -141 48 -87
106 -187 128 -222z m1892 298 c40 -106 101 -291 96 -295 -4 -4 -274 -56 -344
-67 -50 -7 -52 -14 28 114 26 41 78 132 116 203 37 70 69 127 70 127 1 0 16
-37 34 -82z m-2140 -572 c126 -24 289 -50 409 -64 l65 -7 83 -110 c46 -60 130
-164 186 -229 165 -192 153 -174 131 -195 -185 -172 -428 -337 -584 -396 -290
-111 -435 -38 -497 249 -26 119 -23 406 5 581 37 225 32 207 56 201 12 -3 77
-16 146 -30z m2318 -18 c43 -174 67 -461 52 -616 -14 -133 -25 -181 -61 -257
-53 -114 -116 -156 -234 -156 -192 0 -468 148 -763 407 l-62 55 78 87 c88 99
215 256 286 354 47 64 51 67 100 73 159 19 345 48 441 69 156 33 151 34 163
-16z m-995 -90 c-36 -48 -111 -138 -174 -211 l-74 -86 -61 67 c-34 37 -93 106
-133 155 l-72 87 262 0 c207 0 259 -3 252 -12z"/>
<path d="M2420 3011 c-199 -63 -331 -244 -331 -451 0 -263 207 -470 469 -470
305 0 533 291 457 583 -42 163 -168 295 -324 341 -72 21 -200 20 -271 -3z"/>
</g>
</svg>
